<svg width="13" height="17" viewBox="0 0 13 17" fill="none" xmlns="http://www.w3.org/2000/svg">
<path fill-rule="evenodd" clip-rule="evenodd" d="M7.45833 15.2342C9.685 12.635 12.5 9.34833 12.5 6.3925C12.5 2.8625 9.70167 0 6.25 0C2.79833 0 0 2.8625 0 6.3925C0 9.34833 2.815 12.635 5.04167 15.2342C5.475 15.7408 5.88667 16.22 6.25 16.6667C6.61333 16.22 7.025 15.7408 7.45833 15.2342ZM6.25 8.33333C6.55095 8.33333 6.84895 8.27406 7.12698 8.15889C7.40502 8.04372 7.65765 7.87492 7.87045 7.66212C8.08325 7.44932 8.25206 7.19669 8.36722 6.91865C8.48239 6.64061 8.54167 6.34261 8.54167 6.04167C8.54167 5.74072 8.48239 5.44272 8.36722 5.16468C8.25206 4.88665 8.08325 4.63401 7.87045 4.42121C7.65765 4.20841 7.40502 4.03961 7.12698 3.92444C6.84895 3.80928 6.55095 3.75 6.25 3.75C5.64221 3.75 5.05932 3.99144 4.62955 4.42121C4.19978 4.85098 3.95833 5.43388 3.95833 6.04167C3.95833 6.64945 4.19978 7.23235 4.62955 7.66212C5.05932 8.09189 5.64221 8.33333 6.25 8.33333Z" fill="black"/>
</svg>
